<?xml version="1.0" encoding="UTF-8"?>
<svg width="16px" height="16px" viewBox="0 0 16 16" version="1.1" xmlns="http://www.w3.org/2000/svg" xmlns:xlink="http://www.w3.org/1999/xlink">
    <!-- Generator: Sketch 59.1 (86144) - https://sketch.com -->
    <title>noun_logout_2058689</title>
    <desc>Created with Sketch.</desc>
    <g id="Page-1" stroke="none" stroke-width="1" fill="none" fill-rule="evenodd">
        <g id="Review-pop-up" transform="translate(-226.000000, -677.000000)" fill="#FFFFFF" fill-rule="nonzero">
            <g id="Group-6" transform="translate(226.000000, 673.000000)">
                <g id="noun_logout_2058689" transform="translate(0.000000, 4.000000)">
                    <g id="Group" transform="translate(0.000000, 0.500000)">
                        <g id="Shape">
                            <g>
                                <g>
                                    <g>
                                        <g>
                                            <path d="M12.3896163,11.3374658 C12.1298845,11.5968447 11.7083802,11.5968447 11.4480886,11.3374658 C11.1883569,11.078087 11.1883569,10.6571553 11.4480886,10.3972174 L13.6395755,8.20870807 L5.92878834,8.20870807 C5.56158136,8.20870807 5.26322567,7.91131676 5.26322567,7.54404968 C5.26322567,7.17734162 5.56158136,6.8793913 5.92878834,6.8793913 L13.6395755,6.8793913 L11.4480886,4.69088198 C11.1883569,4.43150312 11.1883569,4.01057142 11.4480886,3.75119253 C11.7083802,3.49125466 12.1298845,3.49125466 12.3896163,3.75119253 L15.7174297,7.07448447 C15.8472956,7.20417391 15.9122286,7.37411182 15.9122286,7.54404968 C15.9122286,7.7145466 15.8472956,7.88448447 15.7174297,8.01417391 L12.3896163,11.3374658 Z M5.65086413,14.1906336 C5.65086413,14.5579006 5.35306821,14.8552919 4.98586122,14.8552919 L2.32305073,14.8552919 C2.05492245,14.8552919 1.79407114,14.8033043 1.54833353,14.7010062 C1.31099242,14.6020621 1.09772128,14.4600745 0.914677551,14.2795155 C0.730514286,14.0983975 0.586094461,13.8870932 0.484776676,13.6511925 C0.379540525,13.4063478 0.326362682,13.1464099 0.326362682,12.878646 L0.326362682,2.22678261 C0.326362682,1.95790062 0.379540525,1.69684472 0.483657143,1.45032298 C0.58441516,1.21330435 0.72827522,0.999763976 0.911318952,0.816968945 C1.09436268,0.634173913 1.30763382,0.490509316 1.54609446,0.389888198 C1.79239184,0.285354036 2.05380292,0.232807454 2.32305073,0.232807454 L4.98586122,0.232807454 C5.35306821,0.232807454 5.65086413,0.530198759 5.65086413,0.897465838 C5.65086413,1.26473292 5.35306821,1.56212422 4.98586122,1.56212422 L2.32305073,1.56212422 C1.95584373,1.56212422 1.65748805,1.86063354 1.65748805,2.22678261 L1.65748805,12.878646 C1.65748805,13.2358509 1.95584373,13.5259751 2.32305073,13.5259751 L4.98586122,13.5259751 C5.35306821,13.5259751 5.65086413,13.8239255 5.65086413,14.1906336 Z"></path>
                                        </g>
                                    </g>
                                </g>
                            </g>
                        </g>
                    </g>
                </g>
            </g>
        </g>
    </g>
</svg>