<?xml version="1.0" encoding="UTF-8"?>
<svg width="11px" height="20px" viewBox="0 0 11 20" version="1.1" xmlns="http://www.w3.org/2000/svg" xmlns:xlink="http://www.w3.org/1999/xlink">
    <!-- Generator: Sketch 59.1 (86144) - https://sketch.com -->
    <title>Path</title>
    <desc>Created with Sketch.</desc>
    <g id="Page-1" stroke="none" stroke-width="1" fill="none" fill-rule="evenodd">
        <g id="Review-pop-up" transform="translate(-223.000000, -464.000000)" fill="#3676BC" fill-rule="nonzero">
            <g id="Group-7" transform="translate(213.000000, 398.000000)">
                <g id="Group-8" transform="translate(0.000000, 52.000000)">
                    <path d="M18.4210526,19.4736842 L20.3157895,16.7368421 C20.4795322,16.4795322 20.502924,16.1520468 20.3625731,15.871345 C20.2222222,15.5906433 19.9415205,15.4269006 19.6374269,15.4269006 L11.6842105,15.4269006 L11.6842105,14.8187135 C11.6842105,14.3508772 11.3099415,14 10.8654971,14 C10.4210526,14 10,14.374269 10,14.8187135 L10,32.4093567 C10,32.877193 10.374269,33.2280702 10.8187135,33.2280702 C11.2631579,33.2280702 11.6374269,32.8538012 11.6374269,32.4093567 L11.6374269,23.5204678 L19.5906433,23.5204678 C19.8947368,23.5204678 20.1754386,23.3567251 20.3157895,23.0760234 C20.4561404,22.7953216 20.4327485,22.4678363 20.2690058,22.2105263 L18.4210526,19.4736842 Z" id="Path"></path>
                </g>
            </g>
        </g>
    </g>
</svg>