<?xml version="1.0" encoding="UTF-8"?>
<svg width="24px" height="24px" viewBox="0 0 24 24" version="1.1" xmlns="http://www.w3.org/2000/svg" xmlns:xlink="http://www.w3.org/1999/xlink">
    <!-- Generator: Sketch 59.1 (86144) - https://sketch.com -->
    <title>Group 12</title>
    <desc>Created with Sketch.</desc>
    <g id="Page-1" stroke="none" stroke-width="1" fill="none" fill-rule="evenodd">
        <g id="Review-pop-up" transform="translate(-223.000000, -409.000000)">
            <g id="Group-7" transform="translate(213.000000, 398.000000)">
                <g id="Group-12" transform="translate(10.000000, 11.000000)">
                    <rect id="Rectangle" stroke="#000000" fill="#EDEDED" x="0.5" y="0.5" width="23" height="23" rx="6"></rect>
                    <path d="M13.1923848,10.8207547 L15.9528302,10.8207547 C16.5311661,10.8207547 17,11.2895886 17,11.8679245 C17,12.4462604 16.5311661,12.9150943 15.9528302,12.9150943 L13.1923848,12.9150943 L13.1923848,12.9150943 L13.1923848,15.8176353 C13.1923848,16.4706373 12.663022,17 12.01002,17 C11.357018,17 10.8276553,16.4706373 10.8276553,15.8176353 L10.8276553,12.9150943 L10.8276553,12.9150943 L8.04716981,12.9150943 C7.46883389,12.9150943 7,12.4462604 7,11.8679245 C7,11.2895886 7.46883389,10.8207547 8.04716981,10.8207547 L10.8276553,10.8207547 L10.8276553,10.8207547 L10.8276553,8.18236473 C10.8276553,7.52936272 11.357018,7 12.01002,7 C12.663022,7 13.1923848,7.52936272 13.1923848,8.18236473 L13.1923848,10.8207547 L13.1923848,10.8207547 Z" id="+" fill="#000000" fill-rule="nonzero"></path>
                </g>
            </g>
        </g>
    </g>
</svg>