<?xml version="1.0" encoding="UTF-8"?>
<svg width="11px" height="20px" viewBox="0 0 11 20" version="1.1" xmlns="http://www.w3.org/2000/svg" xmlns:xlink="http://www.w3.org/1999/xlink">
    <!-- Generator: Sketch 59.1 (86144) - https://sketch.com -->
    <title>Path</title>
    <desc>Created with Sketch.</desc>
    <g id="Page-1" stroke="none" stroke-width="1" fill="none" fill-rule="evenodd">
        <g id="Review-pop-up" transform="translate(-793.000000, -675.000000)" fill-rule="nonzero" stroke="#FFFFFF">
            <g id="Group-6" transform="translate(226.000000, 673.000000)">
                <g id="Review-Flagged-2" transform="translate(567.000000, 2.000000)">
                    <path d="M9.85462257,8.49032357 L7.81536452,5.47015658 L8.00995654,5.18907922 L9.89395873,2.46840436 C9.96640897,2.35455397 9.97469862,2.21363005 9.9153595,2.09495183 C9.86270563,1.98964408 9.75893754,1.92690058 9.6374269,1.92690058 L1.18421053,1.92690058 L1.18421053,0.81871345 C1.18421053,0.63728661 1.04417818,0.5 0.865497076,0.5 C0.680399033,0.5 0.5,0.667279103 0.5,0.81871345 L0.5,18.4093567 C0.5,18.5907836 0.640032343,18.7280702 0.81871345,18.7280702 C0.98701552,18.7280702 1.1374269,18.5776588 1.1374269,18.4093567 L1.1374269,9.02046784 L9.59064327,9.02046784 C9.71215391,9.02046784 9.81592201,8.95772434 9.86857588,8.85241659 C9.92791499,8.73373837 9.91962535,8.59281445 9.85462257,8.49032357 Z" id="Path"></path>
                </g>
            </g>
        </g>
    </g>
</svg>