<?xml version="1.0" encoding="UTF-8"?>
<svg width="11px" height="20px" viewBox="0 0 11 20" version="1.1" xmlns="http://www.w3.org/2000/svg" xmlns:xlink="http://www.w3.org/1999/xlink">
    <!-- Generator: Sketch 59.1 (86144) - https://sketch.com -->
    <title>Path</title>
    <desc>Created with Sketch.</desc>
    <g id="Page-1" stroke="none" stroke-width="1" fill="none" fill-rule="evenodd">
        <g id="Review-pop-up" transform="translate(-637.000000, -675.000000)" fill="#FFFFFF" fill-rule="nonzero">
            <g id="Group-6" transform="translate(226.000000, 673.000000)">
                <g id="Group-11" transform="translate(411.000000, 2.000000)">
                    <path d="M8.42105263,5.47368421 L10.3157895,2.73684211 C10.4795322,2.47953216 10.502924,2.15204678 10.3625731,1.87134503 C10.2222222,1.59064327 9.94152047,1.42690058 9.6374269,1.42690058 L1.68421053,1.42690058 L1.68421053,0.81871345 C1.68421053,0.350877193 1.30994152,-6.92779167e-14 0.865497076,-6.92779167e-14 C0.421052632,-6.92779167e-14 -1.1812773e-13,0.374269006 -1.1812773e-13,0.81871345 L-1.1812773e-13,18.4093567 C-1.1812773e-13,18.877193 0.374269006,19.2280702 0.81871345,19.2280702 C1.26315789,19.2280702 1.6374269,18.8538012 1.6374269,18.4093567 L1.6374269,9.52046784 L9.59064327,9.52046784 C9.89473684,9.52046784 10.1754386,9.35672515 10.3157895,9.07602339 C10.4561404,8.79532164 10.4327485,8.46783626 10.2690058,8.21052632 L8.42105263,5.47368421 Z" id="Path"></path>
                </g>
            </g>
        </g>
    </g>
</svg>