<?xml version="1.0" encoding="UTF-8"?>
<svg width="11px" height="20px" viewBox="0 0 11 20" version="1.1" xmlns="http://www.w3.org/2000/svg" xmlns:xlink="http://www.w3.org/1999/xlink">
    <!-- Generator: Sketch 59.1 (86144) - https://sketch.com -->
    <title>Path</title>
    <desc>Created with Sketch.</desc>
    <g id="Page-1" stroke="none" stroke-width="1" fill="none" fill-rule="evenodd">
        <g id="Review-pop-up" transform="translate(-223.000000, -516.000000)" fill-rule="nonzero" stroke="#CCCCCC">
            <g id="Group-7" transform="translate(213.000000, 398.000000)">
                <g id="Group-8" transform="translate(0.000000, 104.000000)">
                    <path d="M19.8546226,22.4903236 L17.8153645,19.4701566 L18.0099565,19.1890792 L19.8939587,16.4684044 C19.966409,16.354554 19.9746986,16.2136301 19.9153595,16.0949518 C19.8627056,15.9896441 19.7589375,15.9269006 19.6374269,15.9269006 L11.1842105,15.9269006 L11.1842105,14.8187135 C11.1842105,14.6372866 11.0441782,14.5 10.8654971,14.5 C10.680399,14.5 10.5,14.6672791 10.5,14.8187135 L10.5,32.4093567 C10.5,32.5907836 10.6400323,32.7280702 10.8187135,32.7280702 C10.9870155,32.7280702 11.1374269,32.5776588 11.1374269,32.4093567 L11.1374269,23.0204678 L19.5906433,23.0204678 C19.7121539,23.0204678 19.815922,22.9577243 19.8685759,22.8524166 C19.927915,22.7337384 19.9196253,22.5928144 19.8546226,22.4903236 Z" id="Path"></path>
                </g>
            </g>
        </g>
    </g>
</svg>