<svg width="28" height="28" viewBox="0 0 28 28" fill="none" xmlns="http://www.w3.org/2000/svg">
<g clip-path="url(#clip0_11503_407)">
<path d="M20.0162 20.7191C20.0162 21.1652 20.0162 21.6112 20.0162 22.0572C20.0162 22.4199 19.893 22.525 19.556 22.525H18.7081C18.4146 22.525 18.2914 22.4054 18.2769 22.108C18.2624 21.8106 18.2769 21.5858 18.2769 21.3211V19.3556C18.2769 19.1127 18.2443 19.08 18.0015 19.08H16.8564C16.494 19.08 16.4433 19.0003 16.5593 18.6667L18.2261 13.9525C18.2704 13.8496 18.2902 13.7379 18.2841 13.6261C18.2843 13.5829 18.2696 13.541 18.2425 13.5073C18.2155 13.4737 18.1777 13.4503 18.1355 13.4412C18.0948 13.429 18.0512 13.431 18.0117 13.4468C17.9722 13.4626 17.9392 13.4913 17.9181 13.5282L17.7333 13.8328L16.6136 15.704C16.4361 15.9977 16.2766 16.0376 15.9795 15.8563C15.8527 15.7801 15.7258 15.6967 15.599 15.6169C15.3417 15.4538 15.3055 15.3051 15.4649 15.0404C15.7512 14.5617 16.0411 14.0867 16.3274 13.6116C16.8818 12.6978 17.4398 11.7985 17.987 10.8665C18.0683 10.7202 18.1877 10.5988 18.3326 10.5151C18.4775 10.4315 18.6423 10.3887 18.8095 10.3915C19.1107 10.3999 19.4083 10.4587 19.6901 10.5655C20.368 10.7682 21.0944 10.7363 21.7519 10.4749C22.0196 10.3816 22.3074 10.3615 22.5854 10.4169C22.7076 10.4423 22.8226 10.4945 22.9223 10.5697C23.0219 10.6449 23.1036 10.7414 23.1615 10.852C23.5819 11.5555 24.0095 12.2554 24.4334 12.9553L25.6727 15.0077C25.8575 15.3087 25.8213 15.4501 25.5241 15.6387L25.1618 15.8599C24.8828 16.034 24.7124 15.9977 24.5421 15.7185L23.455 13.9053C23.3862 13.7893 23.3137 13.6733 23.2449 13.5427C23.2238 13.5009 23.1885 13.468 23.1452 13.4501C23.102 13.4321 23.0538 13.4302 23.0093 13.4448C22.9644 13.4565 22.9249 13.4836 22.8978 13.5213C22.8707 13.5591 22.8576 13.6051 22.8608 13.6515C22.8621 13.7564 22.8843 13.8599 22.926 13.9561C23.4816 15.5227 24.0372 17.0941 24.5929 18.6703C24.7052 18.9894 24.6472 19.0764 24.3102 19.0764H23.1507C22.8898 19.0764 22.8608 19.1018 22.8608 19.352C22.8608 20.2513 22.8608 21.1507 22.8608 22.05C22.8608 22.4126 22.7521 22.5214 22.3969 22.5214H21.5454C21.2374 22.5214 21.1033 22.3872 21.1033 22.0754V19.4209C21.1033 19.0946 21.1033 19.08 20.7409 19.08H20.2699C20.0416 19.08 20.0017 19.1163 20.0017 19.3411L20.0162 20.7191Z" fill="black" fill-opacity="0.89"/>
<path d="M4.92434 17.8943V13.8183C4.92795 13.7531 4.92795 13.6877 4.92434 13.6225C4.92184 13.5795 4.90575 13.5384 4.8784 13.5052C4.85104 13.4719 4.81383 13.4482 4.77214 13.4376C4.73294 13.428 4.69172 13.4313 4.65453 13.447C4.61735 13.4627 4.58618 13.4899 4.5656 13.5246C4.50898 13.6037 4.45695 13.6861 4.40978 13.7712C4.01118 14.4142 3.62587 15.0561 3.25384 15.6967C3.06541 16.0122 2.89147 16.0594 2.59434 15.8672L2.23197 15.6351C1.97832 15.4683 1.94208 15.316 2.09427 15.0585L3.18137 13.2454C3.64157 12.4838 4.12351 11.7296 4.55835 10.9535C4.86273 10.4169 5.31931 10.2573 5.9607 10.464C6.77605 10.7414 7.66015 10.7414 8.4755 10.464C8.72394 10.347 9.00827 10.332 9.26764 10.4221C9.52702 10.5123 9.74084 10.7004 9.86335 10.9463C10.6678 12.3134 11.5012 13.6624 12.3202 15.0222C12.4941 15.3123 12.4579 15.4574 12.1716 15.6387L11.7839 15.878C11.7396 15.9194 11.6857 15.9491 11.627 15.9642C11.5684 15.9794 11.5068 15.9796 11.4481 15.9648C11.3893 15.95 11.3352 15.9207 11.2907 15.8796C11.2462 15.8384 11.2127 15.7868 11.1932 15.7294C10.7729 15.0295 10.3489 14.326 9.9322 13.6225C9.86335 13.5101 9.79451 13.4013 9.64231 13.4484C9.49012 13.4956 9.50824 13.6225 9.50824 13.7422C9.50824 16.4788 9.50824 19.2154 9.50824 21.9521C9.51545 22.0365 9.51545 22.1215 9.50824 22.2059C9.50459 22.2498 9.49231 22.2925 9.47209 22.3316C9.45187 22.3707 9.42412 22.4054 9.39043 22.4337C9.35675 22.462 9.3178 22.4834 9.27582 22.4966C9.23385 22.5098 9.18968 22.5145 9.14587 22.5105C8.8125 22.5105 8.4755 22.5105 8.14213 22.5105C8.04602 22.5105 7.95385 22.4723 7.8859 22.4043C7.81794 22.3363 7.77976 22.2441 7.77976 22.1479C7.77976 22.0246 7.77976 21.9013 7.77976 21.7853V18.2315C7.77976 17.8689 7.71454 17.8217 7.36304 17.8217H6.92821C6.60933 17.8217 6.52961 17.9015 6.52961 18.2134V22.0935C6.52961 22.3981 6.40278 22.5214 6.09839 22.525C5.87735 22.525 5.65269 22.525 5.43165 22.525C5.02217 22.525 4.92434 22.4235 4.92434 22.0065V17.8943Z" fill="black" fill-opacity="0.89"/>
<path d="M13.2326 13.938V3.54868C13.2326 3.18605 13.2326 3.18605 13.595 3.18605H14.2074C14.4574 3.18605 14.5045 3.22957 14.5045 3.48341V24.3092C14.5045 24.6718 14.5045 24.6718 14.1421 24.6718C13.9247 24.6718 13.7073 24.6718 13.4935 24.6718C13.2797 24.6718 13.229 24.5884 13.2326 24.4107V13.938Z" fill="black" fill-opacity="0.89"/>
<path d="M22.8464 7.63912C22.8484 8.09472 22.7145 8.54056 22.4617 8.91951C22.209 9.29846 21.8489 9.59327 21.4277 9.76617C21.0065 9.93908 20.5433 9.98221 20.0974 9.89004C19.6515 9.79787 19.2433 9.57459 18.925 9.24882C18.6067 8.92304 18.3929 8.50959 18.3109 8.06143C18.2288 7.61328 18.2824 7.15082 18.4646 6.73329C18.6468 6.31577 18.9495 5.96219 19.3337 5.71785C19.718 5.47351 20.1664 5.34954 20.6215 5.36181C21.2162 5.37508 21.7821 5.62085 22.198 6.0465C22.6138 6.47215 22.8466 7.04383 22.8464 7.63912Z" fill="black" fill-opacity="0.89"/>
<path d="M7.22512 5.36182C7.67554 5.36469 8.11505 5.50083 8.48832 5.75312C8.86159 6.00541 9.15194 6.36256 9.32283 6.77962C9.49371 7.19668 9.53749 7.65501 9.44865 8.09692C9.35981 8.53882 9.14233 8.94455 8.82357 9.26304C8.50482 9.58152 8.09904 9.79852 7.65732 9.88673C7.2156 9.97493 6.75767 9.9304 6.34119 9.75873C5.9247 9.58707 5.56827 9.29594 5.31675 8.922C5.06524 8.54806 4.92989 8.10801 4.92773 7.65726C4.92773 7.35551 4.98718 7.05673 5.10268 6.77799C5.21818 6.49926 5.38746 6.24605 5.60084 6.03285C5.81422 5.81966 6.06751 5.65065 6.34622 5.53551C6.62493 5.42036 6.9236 5.36134 7.22512 5.36182Z" fill="black" fill-opacity="0.89"/>
</g>
<defs>
<clipPath id="clip0_11503_407">
<rect width="23.7674" height="21.5039" fill="white" transform="translate(2 3.18605)"/>
</clipPath>
</defs>
</svg>
