<svg width="15" height="17" viewBox="0 0 15 17" fill="none" xmlns="http://www.w3.org/2000/svg">
<path d="M5.125 1.58333V0H9.875V1.58333H5.125ZM6.70833 10.2917H8.29167V5.54167H6.70833V10.2917ZM7.5 16.625C6.52361 16.625 5.60317 16.4371 4.73867 16.0613C3.87417 15.6856 3.11892 15.1741 2.47292 14.5271C1.82639 13.8806 1.31524 13.125 0.939458 12.2605C0.563681 11.396 0.375528 10.4759 0.375 9.5C0.375 8.52361 0.563153 7.60317 0.939458 6.73867C1.31576 5.87417 1.82692 5.11892 2.47292 4.47292C3.11944 3.82639 3.87496 3.31524 4.73946 2.93946C5.60396 2.56368 6.52414 2.37553 7.5 2.375C8.31806 2.375 9.10313 2.50694 9.85521 2.77083C10.6073 3.03472 11.3132 3.41736 11.9729 3.91875L13.0813 2.81042L14.1896 3.91875L13.0813 5.02708C13.5826 5.68681 13.9653 6.39271 14.2292 7.14479C14.4931 7.89687 14.625 8.68194 14.625 9.5C14.625 10.4764 14.4368 11.3968 14.0605 12.2613C13.6842 13.1258 13.1731 13.8811 12.5271 14.5271C11.8806 15.1736 11.125 15.685 10.2605 16.0613C9.39604 16.4376 8.47586 16.6255 7.5 16.625ZM7.5 15.0417C9.03056 15.0417 10.3368 14.5007 11.4188 13.4188C12.5007 12.3368 13.0417 11.0306 13.0417 9.5C13.0417 7.96944 12.5007 6.66319 11.4188 5.58125C10.3368 4.49931 9.03056 3.95833 7.5 3.95833C5.96944 3.95833 4.66319 4.49931 3.58125 5.58125C2.49931 6.66319 1.95833 7.96944 1.95833 9.5C1.95833 11.0306 2.49931 12.3368 3.58125 13.4188C4.66319 14.5007 5.96944 15.0417 7.5 15.0417Z" fill="black"/>
</svg>
