<svg width="28" height="28" viewBox="0 0 28 28" fill="none" xmlns="http://www.w3.org/2000/svg">
<g clip-path="url(#clip0_9543_2240)">
<path fill-rule="evenodd" clip-rule="evenodd" d="M14.0517 6.14279C13.4545 6.13201 12.8611 6.2391 12.3053 6.45793C11.7496 6.67676 11.2424 7.00304 10.8129 7.41809C10.3834 7.83315 10.0399 8.32883 9.8022 8.87677C9.56447 9.42471 9.43713 10.0142 9.42746 10.6114V16.8571C9.42746 17.236 9.27695 17.5993 9.00904 17.8672C8.74113 18.1351 8.37776 18.2856 7.99888 18.2856H6.21317C5.64485 18.2856 5.0998 18.0599 4.69794 17.658C4.29608 17.2562 4.07031 16.7111 4.07031 16.1428V13.2856C4.07031 12.7173 4.29608 12.1723 4.69794 11.7704C5.0998 11.3686 5.64485 11.1428 6.21317 11.1428H7.2846V10.5856C7.29763 9.70764 7.4835 8.8408 7.83159 8.03463C8.17968 7.22846 8.68316 6.49876 9.31329 5.8872C9.94343 5.27564 10.6879 4.79421 11.5041 4.47038C12.3203 4.14656 13.1923 3.9867 14.0703 3.99994C14.9483 3.9867 15.8203 4.14656 16.6365 4.47038C17.4528 4.79421 18.1972 5.27564 18.8273 5.8872C19.4575 6.49876 19.961 7.22846 20.309 8.03463C20.6571 8.8408 20.843 9.70764 20.856 10.5856V11.1428H21.9275C22.4958 11.1428 23.0408 11.3686 23.4427 11.7704C23.8445 12.1723 24.0703 12.7173 24.0703 13.2856V16.1428C24.0703 16.7111 23.8445 17.2562 23.4427 17.658C23.0408 18.0599 22.4958 18.2856 21.9275 18.2856H20.856V18.9999C20.8562 19.9653 20.5009 20.8969 19.858 21.6171C19.2151 22.3372 18.3295 22.7954 17.3703 22.9042C17.184 23.2368 16.9124 23.5137 16.5834 23.7063C16.2545 23.8989 15.8801 24.0003 15.4989 23.9999H13.356C12.7877 23.9999 12.2427 23.7742 11.8408 23.3723C11.4389 22.9704 11.2132 22.4254 11.2132 21.8571C11.2132 21.2888 11.4389 20.7437 11.8408 20.3418C12.2427 19.94 12.7877 19.7142 13.356 19.7142H15.4989C16.2732 19.7142 16.9517 20.1242 17.3275 20.7399C17.7212 20.6494 18.0726 20.4281 18.3243 20.112C18.576 19.796 18.7131 19.404 18.7132 18.9999V10.6099C18.7034 10.0096 18.5747 9.41726 18.3345 8.86701C18.0944 8.31676 17.7476 7.81957 17.3141 7.40418C16.8807 6.98878 16.3692 6.66343 15.8092 6.44692C15.2492 6.23041 14.6519 6.12704 14.0517 6.14279Z" fill="#1C1C1C"/>
</g>
<defs>
<clipPath id="clip0_9543_2240">
<rect width="20" height="20" fill="white" transform="translate(4.07031 4.00002)"/>
</clipPath>
</defs>
</svg>
