<svg xmlns="http://www.w3.org/2000/svg" width="131.386" height="131.386" viewBox="0 0 131.386 131.386">
  <path id="Icon_awesome-check-circle" data-name="Icon awesome-check-circle" d="M131.949,66.256A65.693,65.693,0,1,1,66.256.563,65.693,65.693,0,0,1,131.949,66.256ZM58.657,101.04,107.4,52.3a4.238,4.238,0,0,0,0-5.994L101.4,40.312a4.238,4.238,0,0,0-5.994,0L55.66,80.061,37.1,61.5a4.239,4.239,0,0,0-5.994,0L25.114,67.5a4.238,4.238,0,0,0,0,5.994l27.549,27.549a4.238,4.238,0,0,0,5.994,0Z" transform="translate(-0.563 -0.563)" fill="#0f9800"/>
</svg>
