<svg width="4" height="14" viewBox="0 0 4 14" fill="none" xmlns="http://www.w3.org/2000/svg">
<path d="M3.53906 7.00076C3.53906 6.79843 3.49921 6.59808 3.42178 6.41116C3.34436 6.22423 3.23087 6.05439 3.0878 5.91132C2.94473 5.76825 2.77489 5.65477 2.58796 5.57734C2.40104 5.49991 2.20069 5.46006 1.99836 5.46006C1.79603 5.46006 1.59569 5.49991 1.40876 5.57734C1.22184 5.65477 1.05199 5.76825 0.908924 5.91132C0.765856 6.05439 0.652369 6.22423 0.574941 6.41116C0.497514 6.59808 0.457663 6.79843 0.457663 7.00076C0.457756 7.40938 0.620168 7.80122 0.909171 8.0901C1.19817 8.37897 1.59009 8.5412 1.99871 8.54111C2.40733 8.54102 2.79918 8.3786 3.08805 8.0896C3.37692 7.8006 3.53915 7.40868 3.53906 7.00006L3.53906 7.00076ZM3.53906 2.10076C3.53906 1.89843 3.49921 1.69808 3.42178 1.51116C3.34436 1.32423 3.23087 1.15439 3.0878 1.01132C2.94473 0.868252 2.77489 0.754765 2.58796 0.677337C2.40104 0.59991 2.20069 0.560059 1.99836 0.560059C1.79603 0.560059 1.59569 0.59991 1.40876 0.677337C1.22184 0.754765 1.05199 0.868252 0.908924 1.01132C0.765856 1.15439 0.652369 1.32423 0.574942 1.51116C0.497514 1.69808 0.457663 1.89843 0.457663 2.10076C0.457756 2.50938 0.620168 2.90122 0.909171 3.1901C1.19817 3.47897 1.59009 3.6412 1.99871 3.64111C2.40733 3.64102 2.79918 3.4786 3.08805 3.1896C3.37692 2.9006 3.53916 2.50938 3.53906 2.10076ZM3.53906 11.9008C3.53906 11.6984 3.49921 11.4981 3.42178 11.3112C3.34436 11.1242 3.23087 10.9544 3.0878 10.8113C2.94473 10.6683 2.77489 10.5548 2.58796 10.4773C2.40104 10.3999 2.20069 10.3601 1.99836 10.3601C1.79603 10.3601 1.59569 10.3999 1.40876 10.4773C1.22184 10.5548 1.05199 10.6683 0.908923 10.8113C0.765856 10.9544 0.652369 11.1242 0.574941 11.3112C0.497514 11.4981 0.457663 11.6984 0.457663 11.9008C0.457756 12.3094 0.620167 12.7012 0.90917 12.9901C1.19817 13.279 1.59009 13.4412 1.99871 13.4411C2.40733 13.441 2.79918 13.2786 3.08805 12.9896C3.37692 12.7006 3.53915 12.3094 3.53906 11.9008Z" fill="black" fill-opacity="0.89"/>
</svg>
