<svg width="18" height="18" viewBox="0 0 18 18" fill="none" xmlns="http://www.w3.org/2000/svg">
<path d="M13.325 15.8L12.175 16.95C11.8917 17.2333 11.5417 17.3793 11.125 17.388C10.7083 17.3967 10.35 17.2507 10.05 16.95C9.76667 16.6667 9.625 16.3127 9.625 15.888C9.625 15.4633 9.76667 15.109 10.05 14.825L11.2 13.675C11.1333 13.4917 11.0833 13.3 11.05 13.1C11.0167 12.9 11 12.7 11 12.5C11 11.5333 11.3417 10.7083 12.025 10.025C12.7083 9.34167 13.5333 9 14.5 9C14.65 9 14.8 9.00433 14.95 9.013C15.1 9.02167 15.2417 9.05067 15.375 9.1C15.5583 9.16667 15.671 9.30433 15.713 9.513C15.755 9.72167 15.709 9.89233 15.575 10.025L14.5 11.1C14.3 11.3 14.2 11.5333 14.2 11.8C14.2 12.0667 14.3 12.3 14.5 12.5C14.6833 12.6833 14.9167 12.775 15.2 12.775C15.4833 12.775 15.7167 12.6833 15.9 12.5L16.975 11.425C17.1083 11.2917 17.279 11.2457 17.487 11.287C17.695 11.3283 17.8327 11.441 17.9 11.625C17.95 11.7583 17.9793 11.9 17.988 12.05C17.9967 12.2 18.0007 12.35 18 12.5C18 13.4667 17.6583 14.2917 16.975 14.975C16.2917 15.6583 15.4667 16 14.5 16C14.2833 16 14.0793 15.9833 13.888 15.95C13.6967 15.9167 13.509 15.8667 13.325 15.8ZM3.35 16C2.31667 15.1667 1.5 14.146 0.9 12.938C0.3 11.73 0 10.4173 0 9C0 7.75 0.237667 6.57933 0.713 5.488C1.18833 4.39667 1.82967 3.44667 2.637 2.638C3.44567 1.82933 4.39567 1.18767 5.487 0.713C6.57833 0.238333 7.74933 0.000666667 9 0C10.85 0 12.5083 0.5 13.975 1.5C15.4417 2.5 16.525 3.79167 17.225 5.375C17.3417 5.64167 17.3417 5.9 17.225 6.15C17.1083 6.4 16.9167 6.575 16.65 6.675C16.4 6.75833 16.1543 6.74167 15.913 6.625C15.6717 6.50833 15.4923 6.325 15.375 6.075C14.825 4.875 13.9793 3.896 12.838 3.138C11.6967 2.38 10.4173 2.00067 9 2C7.05 2 5.396 2.67933 4.038 4.038C2.68 5.39667 2.00067 7.05067 2 9C2 10.2 2.271 11.3 2.813 12.3C3.355 13.3 4.084 14.1167 5 14.75V13C5 12.7167 5.096 12.4793 5.288 12.288C5.48 12.0967 5.71733 12.0007 6 12C6.28333 12 6.521 12.096 6.713 12.288C6.905 12.48 7.00067 12.7173 7 13V17C7 17.2833 6.904 17.521 6.712 17.713C6.52 17.905 6.28267 18.0007 6 18H2C1.71667 18 1.47933 17.904 1.288 17.712C1.09667 17.52 1.00067 17.2827 1 17C1 16.7167 1.096 16.4793 1.288 16.288C1.48 16.0967 1.71733 16.0007 2 16H3.35Z" fill="#32383E"/>
</svg>
