<svg width="30" height="24" viewBox="0 0 30 24" fill="none" xmlns="http://www.w3.org/2000/svg">
<path fill-rule="evenodd" clip-rule="evenodd" d="M15.9755 0.485433L29.5498 22.0226C29.9611 22.6699 30.3137 24 29.5498 24H0.450234C-0.313688 24 0.0388915 22.6699 0.450234 22.0226L14.0187 0.485433C14.43 -0.161811 15.57 -0.161811 15.9755 0.485433ZM13.813 18.2876H16.1753V20.4016H13.813V18.2876ZM16.1753 16.8269H13.813C13.5779 13.9291 13.0843 12.0883 13.0843 9.19057C13.0843 8.12173 13.9423 7.25478 15 7.25478C16.0577 7.25478 16.9157 8.12173 16.9157 9.19057C16.9157 12.0824 16.4162 13.9291 16.1753 16.8269Z" fill="#E7350E"/>
</svg>
